<svg width="181" height="27" viewBox="0 0 181 27" fill="none" xmlns="http://www.w3.org/2000/svg">
<path fill-rule="evenodd" clip-rule="evenodd" d="M8.03072 0H0V27H8.03072V26.4556L8.14951 26.5736L18.0743 16.7148L27.9991 26.5736L28.1179 26.4556V27H36.1486V0H28.1179V15.4101L23.5933 10.9155L18.0743 16.3977L12.5554 10.9155L8.03072 15.4101V0Z" fill="black"/>
<path d="M48.1531 20.8636L44.2168 7.1982H47.3941L49.6713 16.6933H49.7854L52.2977 7.1982H55.0182L57.5238 16.7133H57.6446L59.9218 7.1982H63.0993L59.1628 20.8636H56.328L53.7083 11.929H53.6008L50.9878 20.8636H48.1531ZM79.5487 14.0309C79.5487 15.5211 79.2639 16.7889 78.6956 17.8343C78.1309 18.8796 77.3606 19.6782 76.3846 20.2298C75.4129 20.7769 74.3201 21.0505 73.1068 21.0505C71.8843 21.0505 70.7865 20.7747 69.8148 20.2231C68.8431 19.6715 68.0753 18.873 67.5113 17.8276C66.9466 16.7822 66.6649 15.5167 66.6649 14.0309C66.6649 12.5407 66.9466 11.2729 67.5113 10.2275C68.0753 9.18221 68.8431 8.3859 69.8148 7.83878C70.7865 7.28718 71.8843 7.01135 73.1068 7.01135C74.3201 7.01135 75.4129 7.28718 76.3846 7.83878C77.3606 8.3859 78.1309 9.18221 78.6956 10.2275C79.2639 11.2729 79.5487 12.5407 79.5487 14.0309ZM76.5995 14.0309C76.5995 13.0656 76.4538 12.2516 76.1628 11.5888C75.8762 10.926 75.4709 10.4233 74.9471 10.0808C74.4232 9.73823 73.8098 9.56696 73.1068 9.56696C72.4032 9.56696 71.7898 9.73823 71.2659 10.0808C70.7421 10.4233 70.3344 10.926 70.0434 11.5888C69.7568 12.2516 69.6134 13.0656 69.6134 14.0309C69.6134 14.9962 69.7568 15.8103 70.0434 16.4731C70.3344 17.1359 70.7421 17.6386 71.2659 17.9811C71.7898 18.3236 72.4032 18.4949 73.1068 18.4949C73.8098 18.4949 74.4232 18.3236 74.9471 17.9811C75.4709 17.6386 75.8762 17.1359 76.1628 16.4731C76.4538 15.8103 76.5995 14.9962 76.5995 14.0309ZM84.7297 20.8636V7.1982H90.1572C91.1963 7.1982 92.0828 7.38279 92.8173 7.75201C93.5561 8.11682 94.1183 8.63503 94.5031 9.30672C94.8929 9.97399 95.0875 10.7591 95.0875 11.6622C95.0875 12.5696 94.8904 13.3503 94.4963 14.0042C94.1022 14.6537 93.5314 15.1519 92.7833 15.4989C92.0401 15.8459 91.1401 16.0194 90.0831 16.0194H86.4489V13.6973H89.613C90.1684 13.6973 90.6292 13.6217 90.9968 13.4704C91.3637 13.3192 91.6374 13.0923 91.8165 12.7898C92 12.4873 92.0914 12.1115 92.0914 11.6622C92.0914 11.2084 92 10.8258 91.8165 10.5145C91.6374 10.2031 91.3619 9.9673 90.99 9.8072C90.623 9.64262 90.1591 9.56028 89.5994 9.56028H87.6381V20.8636H84.7297ZM92.1588 14.6448L95.578 20.8636H92.3669L89.0218 14.6448H92.1588ZM105.046 20.8636H100.17V7.1982H105.086C106.47 7.1982 107.662 7.47176 108.66 8.01894C109.659 8.56164 110.427 9.34231 110.964 10.361C111.506 11.3797 111.777 12.5986 111.777 14.0176C111.777 15.4411 111.506 16.6643 110.964 17.6875C110.427 18.7106 109.655 19.4958 108.647 20.0429C107.644 20.5901 106.444 20.8636 105.046 20.8636ZM103.078 18.3881H104.925C105.785 18.3881 106.508 18.2368 107.095 17.9344C107.686 17.6274 108.129 17.1537 108.425 16.5131C108.725 15.8681 108.875 15.0362 108.875 14.0176C108.875 13.0078 108.725 12.1826 108.425 11.5421C108.129 10.9015 107.688 10.43 107.102 10.1275C106.515 9.825 105.792 9.67374 104.932 9.67374H103.078V18.3881ZM119.537 20.8636L115.601 7.1982H118.779L121.056 16.6933H121.17L123.682 7.1982H126.402L128.908 16.7133H129.029L131.306 7.1982H134.484L130.547 20.8636H127.713L125.093 11.929H124.985L122.372 20.8636H119.537ZM140.053 20.8636H136.936L141.685 7.1982H145.433L150.176 20.8636H147.059L143.613 10.321H143.505L140.053 20.8636ZM139.857 15.4922H147.22V17.7475H139.857V15.4922ZM154.858 20.8636V7.1982H160.285C161.324 7.1982 162.211 7.38279 162.945 7.75201C163.684 8.11682 164.246 8.63503 164.632 9.30672C165.021 9.97399 165.216 10.7591 165.216 11.6622C165.216 12.5696 165.019 13.3503 164.625 14.0042C164.231 14.6537 163.66 15.1519 162.912 15.4989C162.169 15.8459 161.269 16.0194 160.212 16.0194H156.577V13.6973H159.742C160.296 13.6973 160.758 13.6217 161.125 13.4704C161.492 13.3192 161.765 13.0923 161.944 12.7898C162.128 12.4873 162.22 12.1115 162.22 11.6622C162.22 11.2084 162.128 10.8258 161.944 10.5145C161.765 10.2031 161.49 9.9673 161.119 9.8072C160.751 9.64262 160.288 9.56028 159.728 9.56028H157.767V20.8636H154.858ZM162.287 14.6448L165.706 20.8636H162.495L159.15 14.6448H162.287ZM170.298 20.8636V7.1982H179.568V9.58034H173.207V12.8365H179.091V15.2186H173.207V18.4815H179.595V20.8636H170.298Z" fill="black"/>
</svg>
