<svg width="181" height="27" viewBox="0 0 181 27" fill="none" xmlns="http://www.w3.org/2000/svg">
<path fill-rule="evenodd" clip-rule="evenodd" d="M8.03072 0H0V27H8.03072V26.4556L8.14951 26.5736L18.0743 16.7148L27.9991 26.5736L28.1179 26.4556V27H36.1486V0H28.1179V15.4101L23.5933 10.9155L18.0743 16.3977L12.5554 10.9155L8.03072 15.4101V0Z" fill="white"/>
<path d="M48.1531 20.8635L44.2168 7.19808H47.3941L49.6713 16.6932H49.7854L52.2977 7.19808H55.0182L57.5238 16.7132H57.6446L59.9218 7.19808H63.0993L59.1628 20.8635H56.328L53.7083 11.9289H53.6008L50.9878 20.8635H48.1531ZM79.5487 14.0308C79.5487 15.521 79.2639 16.7888 78.6956 17.8342C78.1309 18.8795 77.3606 19.678 76.3846 20.2296C75.4129 20.7768 74.3201 21.0504 73.1068 21.0504C71.8843 21.0504 70.7865 20.7745 69.8148 20.2229C68.8431 19.6713 68.0753 18.8729 67.5113 17.8275C66.9466 16.7821 66.6649 15.5165 66.6649 14.0308C66.6649 12.5406 66.9466 11.2728 67.5113 10.2274C68.0753 9.18209 68.8431 8.38578 69.8148 7.83866C70.7865 7.28706 71.8843 7.01123 73.1068 7.01123C74.3201 7.01123 75.4129 7.28706 76.3846 7.83866C77.3606 8.38578 78.1309 9.18209 78.6956 10.2274C79.2639 11.2728 79.5487 12.5406 79.5487 14.0308ZM76.5995 14.0308C76.5995 13.0655 76.4538 12.2514 76.1628 11.5887C75.8762 10.9259 75.4709 10.4232 74.9471 10.0806C74.4232 9.73811 73.8098 9.56684 73.1068 9.56684C72.4032 9.56684 71.7898 9.73811 71.2659 10.0806C70.7421 10.4232 70.3344 10.9259 70.0434 11.5887C69.7568 12.2514 69.6134 13.0655 69.6134 14.0308C69.6134 14.9961 69.7568 15.8102 70.0434 16.4729C70.3344 17.1358 70.7421 17.6384 71.2659 17.981C71.7898 18.3235 72.4032 18.4948 73.1068 18.4948C73.8098 18.4948 74.4232 18.3235 74.9471 17.981C75.4709 17.6384 75.8762 17.1358 76.1628 16.4729C76.4538 15.8102 76.5995 14.9961 76.5995 14.0308ZM84.7297 20.8635V7.19808H90.1572C91.1963 7.19808 92.0828 7.38266 92.8173 7.75189C93.5561 8.1167 94.1183 8.63491 94.5031 9.3066C94.8929 9.97387 95.0875 10.759 95.0875 11.662C95.0875 12.5695 94.8904 13.3502 94.4963 14.0041C94.1022 14.6536 93.5314 15.1518 92.7833 15.4987C92.0401 15.8458 91.1401 16.0192 90.0831 16.0192H86.4489V13.6972H89.613C90.1684 13.6972 90.6292 13.6216 90.9968 13.4703C91.3637 13.319 91.6374 13.0922 91.8165 12.7897C92 12.4872 92.0914 12.1113 92.0914 11.662C92.0914 11.2083 92 10.8257 91.8165 10.5144C91.6374 10.203 91.3619 9.96718 90.99 9.80708C90.623 9.6425 90.1591 9.56015 89.5994 9.56015H87.6381V20.8635H84.7297ZM92.1588 14.6447L95.578 20.8635H92.3669L89.0218 14.6447H92.1588ZM105.046 20.8635H100.17V7.19808H105.086C106.47 7.19808 107.662 7.47164 108.66 8.01882C109.659 8.56152 110.427 9.34219 110.964 10.3609C111.506 11.3796 111.777 12.5985 111.777 14.0175C111.777 15.4409 111.506 16.6642 110.964 17.6874C110.427 18.7105 109.655 19.4957 108.647 20.0428C107.644 20.59 106.444 20.8635 105.046 20.8635ZM103.078 18.388H104.925C105.785 18.388 106.508 18.2367 107.095 17.9343C107.686 17.6273 108.129 17.1536 108.425 16.513C108.725 15.868 108.875 15.0361 108.875 14.0175C108.875 13.0077 108.725 12.1825 108.425 11.542C108.129 10.9014 107.688 10.4299 107.102 10.1273C106.515 9.82488 105.792 9.67361 104.932 9.67361H103.078V18.388ZM119.537 20.8635L115.601 7.19808H118.779L121.056 16.6932H121.17L123.682 7.19808H126.402L128.908 16.7132H129.029L131.306 7.19808H134.484L130.547 20.8635H127.713L125.093 11.9289H124.985L122.372 20.8635H119.537ZM140.053 20.8635H136.936L141.685 7.19808H145.433L150.176 20.8635H147.059L143.613 10.3209H143.505L140.053 20.8635ZM139.857 15.4921H147.22V17.7474H139.857V15.4921ZM154.858 20.8635V7.19808H160.285C161.324 7.19808 162.211 7.38266 162.945 7.75189C163.684 8.1167 164.246 8.63491 164.632 9.3066C165.021 9.97387 165.216 10.759 165.216 11.662C165.216 12.5695 165.019 13.3502 164.625 14.0041C164.231 14.6536 163.66 15.1518 162.912 15.4987C162.169 15.8458 161.269 16.0192 160.212 16.0192H156.577V13.6972H159.742C160.296 13.6972 160.758 13.6216 161.125 13.4703C161.492 13.319 161.765 13.0922 161.944 12.7897C162.128 12.4872 162.22 12.1113 162.22 11.662C162.22 11.2083 162.128 10.8257 161.944 10.5144C161.765 10.203 161.49 9.96718 161.119 9.80708C160.751 9.6425 160.288 9.56015 159.728 9.56015H157.767V20.8635H154.858ZM162.287 14.6447L165.706 20.8635H162.495L159.15 14.6447H162.287ZM170.298 20.8635V7.19808H179.568V9.58022H173.207V12.8364H179.091V15.2185H173.207V18.4814H179.595V20.8635H170.298Z" fill="white"/>
</svg>
